<svg id="Layer_1" data-name="Layer 1" xmlns="http://www.w3.org/2000/svg" xmlns:xlink="http://www.w3.org/1999/xlink" viewBox="0 0 529.84 125.98"><defs><style>.cls-1{fill:#333;stroke-miterlimit:10;stroke-width:0.5px;stroke:url(#linear-gradient);}.cls-2{fill:url(#linear-gradient-2);}.cls-3{fill:url(#linear-gradient-3);}.cls-4{fill:url(#linear-gradient-4);}.cls-5{fill:url(#linear-gradient-5);}.cls-6{fill:url(#linear-gradient-6);}.cls-7{fill:url(#linear-gradient-7);}.cls-8{fill:url(#linear-gradient-8);}.cls-9{fill:url(#linear-gradient-9);}.cls-10{fill:url(#linear-gradient-10);}.cls-11{fill:url(#linear-gradient-11);}.cls-12{fill:url(#linear-gradient-12);}.cls-13{fill:url(#linear-gradient-13);}.cls-14{fill:url(#linear-gradient-14);}.cls-15{fill:url(#linear-gradient-15);}.cls-16{fill:url(#linear-gradient-16);}.cls-17{fill:url(#linear-gradient-17);}.cls-18{fill:url(#linear-gradient-18);}.cls-19{fill:url(#linear-gradient-19);}.cls-20{fill:url(#linear-gradient-20);}.cls-21{fill:url(#linear-gradient-21);}.cls-22{fill:url(#linear-gradient-22);}.cls-23{fill:url(#linear-gradient-23);}.cls-24{fill:url(#linear-gradient-24);}.cls-25{fill:url(#linear-gradient-25);}.cls-26{fill:url(#linear-gradient-26);}.cls-27{fill:url(#linear-gradient-27);}.cls-28{fill:url(#linear-gradient-28);}</style><linearGradient id="linear-gradient" x1="113.96" y1="360.24" x2="212.77" y2="360.24" gradientUnits="userSpaceOnUse"><stop offset="0.01" stop-color="#dcba30"/><stop offset="0.3" stop-color="#b2951e"/><stop offset="0.58" stop-color="#e5cc64"/><stop offset="0.79" stop-color="#f6eecb"/><stop offset="1" stop-color="#fff"/></linearGradient><linearGradient id="linear-gradient-2" x1="96.92" y1="283.57" x2="251.95" y2="423.79" xlink:href="#linear-gradient"/><linearGradient id="linear-gradient-3" x1="89.02" y1="292.3" x2="244.05" y2="432.52" xlink:href="#linear-gradient"/><linearGradient id="linear-gradient-4" x1="96.11" y1="284.46" x2="251.15" y2="424.68" xlink:href="#linear-gradient"/><linearGradient id="linear-gradient-5" x1="70.08" y1="313.24" x2="225.11" y2="453.46" xlink:href="#linear-gradient"/><linearGradient id="linear-gradient-6" x1="43.82" y1="342.27" x2="198.86" y2="482.49" xlink:href="#linear-gradient"/><linearGradient id="linear-gradient-7" x1="54.32" y1="330.67" x2="209.35" y2="470.89" xlink:href="#linear-gradient"/><linearGradient id="linear-gradient-8" x1="61.43" y1="322.8" x2="216.46" y2="463.02" xlink:href="#linear-gradient"/><linearGradient id="linear-gradient-9" x1="79.85" y1="302.44" x2="234.88" y2="442.66" xlink:href="#linear-gradient"/><linearGradient id="linear-gradient-10" x1="84.84" y1="296.92" x2="239.87" y2="437.14" xlink:href="#linear-gradient"/><linearGradient id="linear-gradient-11" x1="76.66" y1="305.97" x2="231.69" y2="446.19" xlink:href="#linear-gradient"/><linearGradient id="linear-gradient-12" x1="80.62" y1="301.59" x2="235.65" y2="441.81" xlink:href="#linear-gradient"/><linearGradient id="linear-gradient-13" x1="104.12" y1="275.6" x2="259.15" y2="415.82" xlink:href="#linear-gradient"/><linearGradient id="linear-gradient-14" x1="114.33" y1="264.32" x2="269.36" y2="404.54" xlink:href="#linear-gradient"/><linearGradient id="linear-gradient-15" x1="121.14" y1="256.79" x2="276.17" y2="397.01" xlink:href="#linear-gradient"/><linearGradient id="linear-gradient-16" x1="129.79" y1="247.22" x2="284.82" y2="387.44" xlink:href="#linear-gradient"/><linearGradient id="linear-gradient-17" x1="-6.31" y1="332.71" x2="451.59" y2="441.28" xlink:href="#linear-gradient"/><linearGradient id="linear-gradient-18" x1="9.33" y1="266.74" x2="467.23" y2="375.32" xlink:href="#linear-gradient"/><linearGradient id="linear-gradient-19" x1="-16.7" y1="376.54" x2="441.2" y2="485.12" xlink:href="#linear-gradient"/><linearGradient id="linear-gradient-20" x1="-1.79" y1="313.65" x2="456.11" y2="422.22" xlink:href="#linear-gradient"/><linearGradient id="linear-gradient-21" x1="-178.7" y1="344.76" x2="1398.87" y2="377.4" xlink:href="#linear-gradient"/><linearGradient id="linear-gradient-22" x1="-178.74" y1="346.82" x2="1398.83" y2="379.46" xlink:href="#linear-gradient"/><linearGradient id="linear-gradient-23" x1="-178.78" y1="348.52" x2="1398.79" y2="381.16" xlink:href="#linear-gradient"/><linearGradient id="linear-gradient-24" x1="-178.68" y1="343.78" x2="1398.89" y2="376.42" xlink:href="#linear-gradient"/><linearGradient id="linear-gradient-25" x1="-178.69" y1="344.52" x2="1398.88" y2="377.16" xlink:href="#linear-gradient"/><linearGradient id="linear-gradient-26" x1="-178.73" y1="346.46" x2="1398.83" y2="379.1" xlink:href="#linear-gradient"/><linearGradient id="linear-gradient-27" x1="-178.63" y1="341.35" x2="1398.94" y2="373.99" xlink:href="#linear-gradient"/><linearGradient id="linear-gradient-28" x1="-178.76" y1="347.61" x2="1398.81" y2="380.24" xlink:href="#linear-gradient"/></defs><path d="M133.56,377.91h0c0-.05,0-.13-.06-.18S133.54,377.86,133.56,377.91Z" transform="translate(-94.65 -297.25)"/><path class="cls-1" d="M210.74,306.45c-2.48-3.84-6.38-5.05-10.66-4.3a24.69,24.69,0,0,0-7.94,2.54l-1.58,1c-5.77,3.72-11.39,7.71-16.9,11.83L173,318l-1.36,1c-4.67,3.54-9.24,7.21-13.85,10.83-2.42-3.7-5-7.53-7.44-11.17-.28-.42-.57-.83-.85-1.24-6.08-8.88-11.64-16.37-14-17.66-6-3.24-12.72-1.72-17,3.64-3.38,4.27-4.24,9.26-4.26,14.5v88.27c0,1.12,0,2.25.08,3.38,0,.48.07.95.12,1.43s.08.74.14,1.1.11.7.18,1.05h0c.06.35.14.7.22,1s.1.45.16.67a16.83,16.83,0,0,0,.89,2.62,8,8,0,0,0,.46.93c.08.16.17.3.26.45l.14.22h0c2.21,3.28,6,4.16,9.92,2.24a22.55,22.55,0,0,0,5-3.33c.67-.58,1.31-1.19,1.92-1.82s1.32-1.42,2-2.16l5.41-6.42,2-2.37,9.56-11.4a2.94,2.94,0,0,0,.37.32l4.3,3.42.76.6c5.22,4.08,17,12.92,22.48,17l1,.72a22.61,22.61,0,0,0,7.42,3.37,10.76,10.76,0,0,0,13.4-7.39,12.4,12.4,0,0,0,.47-2.32,12.84,12.84,0,0,0,0-3,16.91,16.91,0,0,0-2.19-6l-.16-.28c-.5-.89-1-1.78-1.52-2.66-1.49-2.58-3-5.16-4.5-7.74q-7.58-13.11-15.18-26.22a3.71,3.71,0,0,1-.33-.71,1.93,1.93,0,0,1,.46-1.93l.15-.19,1.29-1.66c.48-.6.94-1.21,1.41-1.8,2.45-3.17,4.88-6.35,7.24-9.58q4-5.49,8-11l.48-.65q3.27-4.54,6.53-9.1l1.29-1.82c1.57-2.2,3.13-4.42,4.69-6.63C213,314.74,213.34,310.48,210.74,306.45Z" transform="translate(-94.65 -297.25)"/><path d="M163.94,392v0h0Z" transform="translate(-94.65 -297.25)"/><path class="cls-2" d="M148.42,323.62a26.37,26.37,0,0,1-2.07,7.73c-.42,1-.9,1.27-1.87.66-2.45-1.53-5-2.86-7.41-4.48l-.9-.6a35.4,35.4,0,0,1,10-6.65C146.93,321.37,147.68,322.48,148.42,323.62Z" transform="translate(-94.65 -297.25)"/><path class="cls-3" d="M148.14,337.16a24.26,24.26,0,0,1-8.85,3.7c-4.95.9-8.72-1-10.38-5.17,1.37-1.78,2.73-3.57,4.13-5.33.49-.61,1-1.2,1.51-1.77,3.83,2.27,7.57,4.67,11.31,7.09l2.28,1.48Z" transform="translate(-94.65 -297.25)"/><path class="cls-4" d="M134.56,305.13c-1.86-1.22-3.85-2.16-6.18-1.83-4.28.6-6.7,3.4-7.93,7.22a23,23,0,0,0-1,6.79c0,.8,0,1.59,0,2.39,1.07.32,2.12.65,3.17,1a4.25,4.25,0,0,1,.43.21,50.38,50.38,0,0,1,11.59,5c.08-.07.16-.16.25-.23a38.42,38.42,0,0,1,10.56-6.62C140.58,312,136.44,306.37,134.56,305.13Zm-3,5.94a55,55,0,0,0-4.87,2.92l-3.28,2.2,1-3.81c0-.17.1-.35.15-.52,1.06-3.31,2.79-4,4.34-4.2h0a1.67,1.67,0,0,1,.31,0,4.74,4.74,0,0,1,2.36.88l2.2,1.34Z" transform="translate(-94.65 -297.25)"/><path class="cls-5" d="M119.36,390.2q0-18.6,0-37.2v-2.39c0-3.89,0-7.79,0-11.68v-2c0-1.65,0-3.3,0-4.95a50.83,50.83,0,0,1,3.74,4c.89,1.07,1.73,2.18,2.53,3.33a11.58,11.58,0,0,0,1.44,2,8.58,8.58,0,0,0,4.93,4.34,10.88,10.88,0,0,0,1.68.45,18.19,18.19,0,0,0,6.2,0,30.49,30.49,0,0,0,12.38-5.45h0a2.59,2.59,0,0,1-.08.7c-1.58,6.66-3.73,13.05-8.33,18.34-3.65,3.63-7.43,7.13-10.83,11-4.15,4.75-5.28,10.3-4.61,16.41.43,3.92.08,7.9.82,11.8.17.89-.42,1.12-1,1.41a77.35,77.35,0,0,0-8.84,4.51C119.29,399.93,119.36,395.06,119.36,390.2Z" transform="translate(-94.65 -297.25)"/><path class="cls-6" d="M121,413.32l5,1.69A3.92,3.92,0,0,1,121,413.32Z" transform="translate(-94.65 -297.25)"/><path class="cls-7" d="M146.93,393.07l-1.08,1.32c-1.72,2.08-3.47,4.14-5.23,6.18l-2,2.27c-2.52,2.87-5.06,5.7-7.61,8.54a15,15,0,0,1-3.41,2.76c-2.46-.82-4.93-1.65-7.39-2.49a14.34,14.34,0,0,1-.8-4.08h0a14.55,14.55,0,0,1,4.31-3.25c7.29-3.92,15-7,22.32-10.8l.88-.45Z" transform="translate(-94.65 -297.25)"/><path class="cls-8" d="M149,390.5h0l-.25.31a11.92,11.92,0,0,1-2.19,1c-4.55,2.19-9.13,4.31-13.7,6.47-1.21.57-1.7.29-1.7-1.08,0-5,.05-10-.38-14.95.42-1.07-.63-2.58.73-3.17,1.14-.48,1.94.79,2.8,1.38,3.8,2.61,7.45,5.43,11.45,7.74a9.09,9.09,0,0,1,.86.49c.84.56,2.48.55,2.44,1.55A.58.58,0,0,1,149,390.5Z" transform="translate(-94.65 -297.25)"/><path class="cls-9" d="M154.93,377.75c-1.48,1.34-1.85,3.29-2.59,5a11.61,11.61,0,0,0-1,4.91h0l0,0-1.1,1.35h0l-.27-.15c-5.69-3.44-11.1-7.28-16.66-10.91a1.66,1.66,0,0,1-.64-2.59,38.32,38.32,0,0,1,6.79-8.42c1.67-1.67,3.34-3.32,5-5l.36-.49a.68.68,0,0,0,.64-.5,29.49,29.49,0,0,0,8.28-14.84c.24-1,.14-2.79,1.1-2.85,1.16-.07,1,1.71,1.38,2.66a67.75,67.75,0,0,1,3.89,12.72,16.39,16.39,0,0,1-1.71,11.58,37.35,37.35,0,0,0-3.16,6.48C154.8,377,155,377.39,154.93,377.75Z" transform="translate(-94.65 -297.25)"/><path class="cls-10" d="M155.85,382.11c.25-.66.5-1.32.76-2,2-4.32,4.41-8.52,5.67-13.15.85-3.09.23-6.21-.6-9.25a132.48,132.48,0,0,0-4.92-13.94c-.31-.78-1.11-1.9-.47-2.37s1.47.67,2.09,1.19c1.65,1.4,3.26,2.85,4.89,4.28l.76,1.23c1.94,3.12,3.52,5.67,4.55,7.31l0,0,0,.06c2.25,3.9.32.79,2.68,4.62a2.32,2.32,0,0,1-.27,3.16C166,369.55,160.91,375.84,155.85,382.11Z" transform="translate(-94.65 -297.25)"/><path class="cls-11" d="M197.34,406.3c1.51,5.43-2.53,9.43-7.92,7.8a19.87,19.87,0,0,1-6-3l-2.84-2.15c2.51-.87,5-1.86,7.57-2.49a20,20,0,0,1,5.59-1,12.53,12.53,0,0,1,3.53.72C197.31,406.19,197.32,406.25,197.34,406.3Z" transform="translate(-94.65 -297.25)"/><path class="cls-12" d="M194.84,401c.32.55.64,1.12.94,1.69l-.12.23a2.29,2.29,0,0,1-2.32,1.37,26,26,0,0,0-12.62,2.85,10,10,0,0,1-1.63.66c-4.23-3.2-9.7-7.36-14.47-11,0-.1.08-.19.11-.29.54-1.47,1-2.95,1.55-4.42,3.36-7.68,6.75-15.34,10.09-23Q185.63,385,194.84,401Z" transform="translate(-94.65 -297.25)"/><path class="cls-13" d="M179.74,352c-.84,1.15-1.73,2.26-2.66,3.43-.33.41-.66.83-1,1.25-.15.21-.31.41-.48.62l-.93-1.59-.35-.61h0a3.8,3.8,0,0,0-.48-1c-.2-.31-.41-.61-.61-.91v0a.18.18,0,0,1,0-.07h0c-.57-.84-1.16-1.67-1.76-2.47s-1.7-2.44-3.15-4.66c5.71-3.21,11.42-6.45,17.84-8.09a47,47,0,0,1,4.66-1Z" transform="translate(-94.65 -297.25)"/><path class="cls-14" d="M193.36,319.75A60.41,60.41,0,0,0,192.07,334a1.84,1.84,0,0,1-1.9,2.2c-5.94.47-11.36,2.64-16.67,5.15-.46.23-1,.7-1.47.37s0-1.07.1-1.58c.83-3.58,1.81-7.11,2.52-10.71a19.91,19.91,0,0,0,.25-6.43c1-.75,1.94-1.5,2.92-2.23,4.92-3.71,10-7.19,15.17-10.55A18.65,18.65,0,0,1,193.36,319.75Z" transform="translate(-94.65 -297.25)"/><path class="cls-15" d="M193.83,332.66c.37-3.69.87-7.36,1.32-11,.24-2,.53-3.93.79-5.9,0-.3-.06-.68.34-.8s.5.11.65.34c1.45,2.34,3,4.62,4.51,6.93Z" transform="translate(-94.65 -297.25)"/><path class="cls-16" d="M207.06,313.29a12.36,12.36,0,0,1-1.91,3.78l-2.53,3.5-.11-.16c-2.47-3.65-5.64-6.86-7.61-10.81l-.23-.45a11.73,11.73,0,0,1,8.6-1.87A4.62,4.62,0,0,1,207.06,313.29Z" transform="translate(-94.65 -297.25)"/><path class="cls-17" d="M99.6,335.72a62.94,62.94,0,0,0,7.56,62.21l2.65,3.53v-12.8l-.21-.35a55.57,55.57,0,0,1,0-56.14l.21-.35V319l-2.65,3.54A63,63,0,0,0,99.6,335.72Z" transform="translate(-94.65 -297.25)"/><path class="cls-18" d="M182.15,302.2a62.63,62.63,0,0,0-24.51-4.95,63.32,63.32,0,0,0-13.84,1.52l-2.33.53,1.52,1.84c.9,1.08,1.91,2.37,3,3.83l.55.73.9-.17a56,56,0,0,1,10.2-.94,55.35,55.35,0,0,1,20,3.73l.73.29.64-.46c1.48-1,2.92-2,4.3-3l2.19-1.49-2.41-1.07Z" transform="translate(-94.65 -297.25)"/><path class="cls-19" d="M172.23,414.51l-.56-.41-.68.17a55.75,55.75,0,0,1-28.32-.43l-.91-.25-.61.72L139,416.89c-.32.37-.63.73-.93,1.06l-1.52,1.7,2.17.68a63.31,63.31,0,0,0,37.56.1l2.77-.86-2.33-1.72C175.33,416.83,173.78,415.68,172.23,414.51Z" transform="translate(-94.65 -297.25)"/><path class="cls-20" d="M215.67,335.72a62.64,62.64,0,0,0-4-7.88l-1.16-1.93-1.3,1.84c-.4.57-.83,1.18-1.28,1.8l-1.54,2.16-.54.75.45.82a55.54,55.54,0,0,1-3.86,59.92l-.57.78.48.83.15.26.15.27c.67,1.15,1.17,2,1.54,2.68l.14.24,0,.05,0,0,.33.6,1,2,1.4-1.77a63.09,63.09,0,0,0,8.51-63.45Z" transform="translate(-94.65 -297.25)"/><path class="cls-21" d="M578.72,386.48c-10.18,5-20.34,4.31-30.23,1-5.1-1.68-6.51-7.06-6.65-12.09-.26-9.4.07-18.81-.23-28.21-.14-4.43,4.2-4.1,6.25-6.92h-9.61c.37-4.76,2.44-8.59,3.63-12.65.58-2,2.36-1.6,3.8-1.6,13.77,0,27.54,0,41.31-.06,2.78,0,3.8.61,3.47,3.72-1.11,10.44-1,10.45-11.55,10.45-6.55,0-13.1.1-19.65,0-2.61-.06-4,.39-3.93,3.47.16,8.73.09,17.46,0,26.19,0,3.68,1.56,5.73,5.37,5.73,5,0,10.08-.12,15.11,0,4.34.08,3.19-3.1,3.09-5.31s1.53-5.56-3.17-5.82c-8.45-.47-8.79-1.21-7.93-10.11.21-2.1.89-3,3-3q9.32.11,18.64,0c2.19,0,3,1,3,3.05,0,11.92-.05,23.84,0,35.76,0,2.24-.9,3.11-3.11,3.68C580,396.19,580,396.28,578.72,386.48Z" transform="translate(-94.65 -297.25)"/><path class="cls-22" d="M363.21,347.42c0-6.73.14-11.92-.06-17.1-.12-3.15.75-4.43,4.17-4.48,9-.12,9.05-.28,9.06,8.56,0,14.28,0,28.56,0,42.84,0,3.52-.65,6.66-3.23,9.21-2.88,2.83-11.38,4.51-13.07,2.56-1.52-1.74-.26-11.23,1.77-13.45,2.22-2.42,2-9.83-.74-13.75-4.64-6.57-10.89-11.35-18-15-3.23-1.65-4-.12-4,3,.09,11.6-.1,23.19.11,34.78.06,3.78-.76,5.39-4.95,5.21-9.86-.41-8.28.95-8.33-8.3-.07-16.8.13-33.6-.08-50.4-.05-4.24,1.27-5.84,5.42-5.27a26.34,26.34,0,0,0,4.53,0c2.21-.08,3.69.61,3.32,3.12-.4,2.74.41,3.32,3.37,3.78a25.67,25.67,0,0,1,16.61,9.64C360.14,343.7,361.2,345,363.21,347.42Z" transform="translate(-94.65 -297.25)"/><path class="cls-23" d="M252.33,348.08c7.58-7.42,14.39-13.88,20.95-20.59,2.34-2.39,3.77-2.93,6.38-.21,6.37,6.66,6.53,6.52,0,13.17-3.88,4-7.72,7.95-11.7,11.8-1.85,1.79-2.29,3.44-.83,5.69,2.81,4.38,5.47,8.85,8.2,13.27,2,3.16,4.43,4.61,7.92,2.29,2.16-1.44,3.3-.84,3.9,1.56a19.75,19.75,0,0,0,1.13,2.8c3,7,.19,11.74-7.55,12.5-5.11.5-9.61-.79-12.82-5.27-3.93-5.47-7.16-11.34-10.54-17.14-.69-1.19-.92-3.54-2.71-3.08s-2.36,2.54-2.33,4.56c.07,5.2-.16,10.42.08,15.61.16,3.39-.72,4.69-4.4,4.65-8.78-.12-8.78.08-8.78-8.75,0-16.62.13-33.25-.09-49.87-.05-4.09,1-6,5.26-5.36a13,13,0,0,0,3.52,0c3.6-.47,4.62,1.13,4.46,4.58C252.14,336,252.33,341.61,252.33,348.08Z" transform="translate(-94.65 -297.25)"/><path class="cls-24" d="M519.12,384.33c-.63,6.29-4.54,6.47-9.11,6.32-15.42-.51-23.83-7.61-27.56-24.19-2.48-11-2.64-22.29-2-33.57.23-4.21,2-6.4,6.22-6.61a25.35,25.35,0,0,0,5-.72c3-.77,3.41.61,3.17,3.17-.47,5-.77,10-1,15.07-.39,7.44,0,14.75,3.22,21.68a16.13,16.13,0,0,0,20.59,8.6c2.47-.9,2.09-2.7,2.09-4.47,0-12.76.18-25.53-.11-38.28-.1-4.39,1-6.33,5.56-5.44a21.29,21.29,0,0,0,4.52.19c2.27,0,3.34.86,3.33,3.27q-.08,27.7,0,55.41c0,2.34-1,3.36-3.25,3.47a34.84,34.84,0,0,0-5.52.45C521,389.37,519.16,388.41,519.12,384.33Z" transform="translate(-94.65 -297.25)"/><path class="cls-25" d="M445.18,340.29c8.53,8.45,17,17,25.62,25.31,3.65,3.5,4.75,7.45,4,12.27-1.2,7.67-4.37,11.13-12.06,11.56-7.53.42-15.11.32-22.66.05-4.83-.17-11.42-8.86-10.86-13.59.16-1.28,1.09-1.68,1.95-2,2.67-1,5.41-1.81,8.1-2.76,1.05-.37,2-.57,2.43.74.62,1.87,1.5,3.51,3.72,3.52,4.19,0,8.54.6,12.5-.39,2.51-.62,0-2.71-.95-3.72-6.13-6.21-12.34-12.34-18.53-18.49l-3.21-3.2c-4.83-4.79-4.83-4.79-.09-9.57a2.53,2.53,0,0,0-.51-.72c-1.79-1.26-6,2-5.75-3.12.49-9,1.5-10.52,6.91-10.54,8.9,0,17.8-.14,26.69-.07a11.84,11.84,0,0,1,11.42,13.12c-.12.91-.42,1.94-1.26,1.93-4.14-.05-7.92,3.61-12.59-.29-3.82-3.2-9.4-.74-14.17-1.24Z" transform="translate(-94.65 -297.25)"/><path class="cls-26" d="M398.69,339.41c-5.31,0-9.67-.1-14,0-2.74.08-3.59-1.1-3.19-3.64a59,59,0,0,0,.91-7c.1-2.48,1.39-3.1,3.56-3.09q17.61,0,35.23,0c2.28,0,3.61.65,3,3.23a2.74,2.74,0,0,0-.07.5c-.75,10.16-.75,10.38-10.78,10.15-4.46-.1-5.8,1.28-5.62,5.7.33,8.38.1,16.78,0,25.17,0,2.07-.14,4.54,1.39,5.69,6.14,4.61.92,9.33.36,13.91-.3,2.4-2.65,1.55-4.17,1.29A13.74,13.74,0,0,1,394.48,379c-.52-11.39-.27-22.8-.51-34.2C393.9,341.79,396.73,341.83,398.69,339.41Z" transform="translate(-94.65 -297.25)"/><path class="cls-27" d="M608.4,339.35c-.77-.09-1.55-.14-2.32-.26-2.42-.36-6,1.28-7.06-1-1.54-3.3.12-7.24.49-10.89.18-1.8,2-1.41,3.3-1.42,6.05-.07,12.1,0,18.15-.09,3-.06,4.1,1.32,3.24,4-1.15,3.58,1.11,8.85-4.88,10.24-.36.08-.46,1.85-.46,2.83q-.06,15.13-.05,30.25c0,2,.19,3.77,2.9,3.6,1.52-.09,1.86.86,2.08,2.2,1.46,8.69-.29,10.82-9,10.82-4.2,0-8.41-.17-12.6.06-3.27.18-4.16-1.17-3.69-4.15.35-2.16.5-4.34.69-6.52.11-1.22.26-2.6,1.84-2.42,4.1.45,3.64-2.35,3.65-4.86q.08-12.09.14-24.19c0-3.05-.52-6.38,4.55-7Z" transform="translate(-94.65 -297.25)"/><path class="cls-28" d="M303.88,339.31c-.65-.07-1.31-.18-2-.2-7.88-.27-7.69-.25-7.32-8.35.17-3.86,1.44-5.32,5.38-5.1a135.14,135.14,0,0,0,15.59,0c4.2-.24,5.08,1.61,3.95,5.07-1.07,3.27.82,8.13-4.8,9.16-.36.06-.48,2.16-.49,3.3,0,9.73,0,19.46,0,29.18,0,2.34,0,4.42,3.27,4.28,1.62-.07,1.57,1.33,1.68,2.52.92,9.73.29,10.44-9.43,10.44-4.36,0-8.72-.05-13.08,0-2.11,0-3.14-.67-2.81-2.94.39-2.65.63-5.32.93-8,.12-1,.36-2.22,1.64-2.09,4.75.49,3.9-2.85,3.92-5.58,0-7.71.14-15.43,0-23.14C300.32,344.59,300.37,341.54,303.88,339.31Z" transform="translate(-94.65 -297.25)"/></svg>