<svg id="Layer_1" data-name="Layer 1" xmlns="http://www.w3.org/2000/svg" viewBox="0 0 328.02 331.41"><defs><style>.cls-1{fill:#fff;}.cls-2{fill:#b2951e;}</style></defs><path class="cls-1" d="M524.24,249q-5.28,7.54-10.62,15l-1.88,2.65q-1.73,2.43-3.46,4.85l-.36.51q-8.48,11.9-17.06,23.75c-.41.58-.84,1.15-1.25,1.74-1.11,1.52-2.21,3.05-3.32,4.58l-7.1,9.79-10.83,14.89c-6.28,8.63-12.77,17.11-19.32,25.55-1.24,1.6-2.48,3.21-3.75,4.81l-3.45,4.44-.4.5c-1.48,1.89-1.79,3.41-1.21,5.15a9.55,9.55,0,0,0,.88,1.89q7,12.07,14,24.17,1.2,2,2.38,4.1c1,1.77,2.05,3.55,3.08,5.33l4.32,7.47,16.67,28.87c3.38,5.83,6.8,11.65,10.17,17.49l1.83,3.15,2.52,4.38c.52.9,1,1.8,1.54,2.71l.44.76a45.61,45.61,0,0,1,5.82,16.07,32.78,32.78,0,0,1,.14,8.11,33.19,33.19,0,0,1-1.26,6.19,29,29,0,0,1-14.22,17.57,28.45,28.45,0,0,1-11.48,3.18,31.22,31.22,0,0,1-10-1,72.61,72.61,0,0,1-10-3.45,51,51,0,0,1-9.8-5.53l-2.62-1.93-1.47-1.08-.36-.27-.31-.23c-15.37-11.38-44.56-33.3-57.82-43.68l-2-1.61-11.48-9.11a8.12,8.12,0,0,1-1-.87l-1.92,2.3-7.05,8.41q-8.26,9.86-16.54,19.72-2.66,3.16-5.32,6.32l-6.28,7.47-3.73,4.43-4.41,5.23c-1.67,2-3.39,3.89-5.19,5.74-1.64,1.69-3.34,3.32-5.12,4.85a60.69,60.69,0,0,1-13.24,8.9c-10.48,5.11-20.58,2.78-26.45-6a24.89,24.89,0,0,1-2.32-4.28,53.53,53.53,0,0,1-3.37-11.54c-.19-.95-.35-1.88-.49-2.81s-.27-2-.38-2.95c-.13-1.27-.22-2.54-.3-3.81-.17-3-.2-6-.21-9q0-12,0-24V247.46c.06-14,2.34-27.28,11.37-38.68,11.32-14.29,29.14-18.37,45.25-9.71,1.65.88,3.85,2.86,6.5,5.72a236.25,236.25,0,0,1,15.56,19.53c4.81,6.56,10,14,15.4,21.84l2.27,3.32,4.7,6.94,6.38,9.56c3,4.45,5.89,8.91,8.77,13.31,12.29-9.67,24.49-19.46,36.95-28.9q1.8-1.38,3.62-2.74l1.82-1.36q3.81-2.86,7.66-5.68,6.06-4.44,12.2-8.8,10.68-7.58,21.61-14.75c1.2-.78,2.4-1.57,3.61-2.34l2.76-1.76c.47-.31,1-.6,1.45-.88s.89-.49,1.34-.73c6-3.13,13.12-4.88,19.84-6,10.44-1.83,20.06.72,26.68,9a29.18,29.18,0,0,1,1.73,2.42,30.46,30.46,0,0,1,3.42,7C531.57,232.38,529.8,241.07,524.24,249Z" transform="translate(-213.18 -194.55)"/><path class="cls-2" d="M457.52,397.44h0l-2.37-4.09-.3.12q-4.81,2-9.66,3.92a566.93,566.93,0,0,1-53.94,17.75,153.94,153.94,0,0,0-19,6.79c-18.3,7.88-30.54,2.44-37.14-16.75-3.38-9.82-1.8-20-2.27-30.49,2.19-13.12-.47-26.63,1.63-40.6q.11-.74.24-1.47c.35-2.06.76-4.07,1.21-6a79.3,79.3,0,0,1,11.89-27.91,75.78,75.78,0,0,1,5.74-7.32c.8-.91,1.63-1.8,2.48-2.7,6.87-7.11,13-14.91,19.22-22.67l-6.38-9.56c-8.11,9.86-16.35,19.62-24.47,29.47q-3,3.66-6,7.34l-.6.74c-3.72,4.59-6.86,5.23-12.05,2-6.84-4.2-14.36-7.32-23.69-11.95,17.89-15.46,28.4-34.34,39.15-53a29.63,29.63,0,0,1,5.29-6.75A236.25,236.25,0,0,0,331,204.79l-2,.65a4.46,4.46,0,0,1,2.2,1.8c2.87,4.13,6.12,9.28,3.1,14.65-12.23,21.71-23.5,45.57-44.87,58.61-6.13,3.74-13.48,5.48-21.53,6.64v6.57a151,151,0,0,1,25.84,1c10.79,1.21,19.89,6.58,29.12,11.76,4.86,2.74,4.49,6.72,4,11.14-4.09,33.89-5.8,67.78-2.36,101.92,1.48,14.71-5.22,20-20.07,17.47-13.61-2.29-26.29,0-36.49,8.67v13.23a13.49,13.49,0,0,1,3.12-2.72c9.79-6.62,20.07-7.9,32.06-8.87,22.6-1.83,41.2,4,58.18,13.28l7.05-8.41-1.89-1.2c-7.59-4.8-5.55-8.93-.35-13.25,7.17-6,16-8.8,24.74-11.29,20.5-5.83,40.86-12,60.59-19.86q4.65-1.85,9.25-3.85C459.57,401,458.55,399.21,457.52,397.44Zm-15,107.75.31.23.27-.08A5.47,5.47,0,0,1,442.49,505.19Z" transform="translate(-213.18 -194.55)"/><path class="cls-2" d="M512.72,239.13q8.28-7.44,16-15.31a30.56,30.56,0,0,0-3.41-7c-.56-.86-1.13-1.67-1.74-2.43a42.71,42.71,0,0,1-9.1,6.9c-16.88,9.24-29.17,5.92-37.42-9.9-.45.24-.9.48-1.34.73s-1,.57-1.45.88l-2.76,1.76-3.61,2.34a41,41,0,0,1,1.79,7.5c.94,6.7-.33,11.12-9.18,9.56q-7.09-1.26-14.22-2.31-6.14,4.35-12.2,8.81c26.89,3.16,52.37,9.66,73.82,31.46l.36-.51q1.74-2.42,3.46-4.85l1.88-2.65C503,256.38,502.39,248.41,512.72,239.13Z" transform="translate(-213.18 -194.55)"/><path class="cls-2" d="M490.57,467q2.73-1.47,5.54-2.88l-2.52-4.38-1.83-3.15a108.1,108.1,0,0,0-12.3,6.48,63.85,63.85,0,0,0-1.18-13.79,148,148,0,0,0-13.36-39.05,141.67,141.67,0,0,0-7.4-12.8h0q-1.31-2-2.67-4t-2.68-3.69c-9.82-13.11-17.21-27-25.86-43.76a31.15,31.15,0,0,1-1.57-3.28,32.52,32.52,0,0,1,2.92-1.85l.38-.22c4.5-2.66,8.85-5.64,13.06-8.51a181.43,181.43,0,0,1,16.09-10.22l2.39-1.29c6.52-3.56,12.71-6.94,19.62-8.7l7.1-9.79c-1.61-.53-3.23-1-4.81-1.52a83.46,83.46,0,0,1-13.18-4.86,70.54,70.54,0,0,0-32.61-7.8,82.42,82.42,0,0,0-11.17.78c-11.53,1.57-22.49,5.54-32.17,9a39.94,39.94,0,0,1-13.54,2.56,32,32,0,0,1-15.92-4.25,9.43,9.43,0,0,0-1.89-.76l-.37-.12-.95-.51-.28-.15-.21-.1-.81-.35-.07,0-.59-.21-.36-.13c-1.25-.81-2.51-1.6-3.78-2.39-3-1.84-6-3.63-9.15-5.46q-3,3.66-6,7.34c.59.36,1.19.72,1.81,1.06,1.52.84,3.07,1.75,4.56,2.62,1,.59,2,1.18,3,1.76a67.07,67.07,0,0,0,10.22,5,46.1,46.1,0,0,0,20.32,5.05,41,41,0,0,0,13.22-2.23l5.14-1.76c6.42-2.21,13.06-4.5,19.68-6.33a73.24,73.24,0,0,1,19.65-2.9,52.1,52.1,0,0,1,22.51,4.93c3.88,1.8,8,3.5,12.55,5.14-2.65.93-5.21,2-7.74,3.1-13.25,6-25.13,14.05-37.14,22.45A43.27,43.27,0,0,1,401,339.22a195.49,195.49,0,0,1-26.69-4.42c-9.72-2.2-19.62-4.28-29.2-6.29L336,326.58l-3.24-.69-3.37,2.74v2.5l4.23,2.4a1.05,1.05,0,0,1-.49.13H333l.49.14.62.19.36.09c9.75,2.52,20.25,5,33,7.66l3.29.7c9.54,2,19.39,4.16,29.51,4.4a36.59,36.59,0,0,0,4.27.25A31.87,31.87,0,0,0,413,346a3.18,3.18,0,0,1,.47-.09,3.35,3.35,0,0,1,.27.47c1.84,3.8,3.83,7.58,5.76,11.24l.14.27c1,1.89,2,3.84,2.93,5.72,3.08,6.11,6.27,12.42,10.52,18.09,1.69,2.24,3.44,4.48,5.13,6.64,2.32,2.95,4.69,6,6.92,9.07.4.54.79,1.09,1.17,1.64q2.65,3.8,5,7.6a122,122,0,0,1,16.53,41.65c1.81,9.52,2.08,19.25,2.1,27.54a41.85,41.85,0,0,0-.68,5.64v0c-.48,6.71-1.36,14.53-4.26,21.74-.7,1.76-1.23,2.69-1.71,3s-1.51.45-3.45.46h-.29a152.21,152.21,0,0,1-16.43-1l1.47,1.08,2.62,1.93a51,51,0,0,0,9.8,5.53h.84c2.88,0,5.73-.1,8.48-.3.36,0,.77-.06,1.13-.06a2.8,2.8,0,0,1,1.51.33c1.87,1.07,3.78,2.13,5.63,3.16l2.45,1.36a28.45,28.45,0,0,0,11.48-3.18c-3.81-2.13-7.65-4.11-11.43-6.06l-2.47-1.28-.33-.19a1.8,1.8,0,0,1,.12-.25A46,46,0,0,0,479.37,487a7,7,0,0,1,.38-1.69,10.13,10.13,0,0,0,.57-4.33C480.21,474.94,483.1,471,490.57,467Z" transform="translate(-213.18 -194.55)"/><path class="cls-2" d="M436.73,513.08h0l0,0c-4.44-3.29-10.07-7.48-16.16-12a147.51,147.51,0,0,1-81.68,1.44l-6.44,7.64c-1.86,2.21-3.76,4.31-5.64,6.25l0,0a164.78,164.78,0,0,0,110-3.26ZM258.08,446.77a147,147,0,0,1,0-173V247.51a163.86,163.86,0,0,0,0,225.5V446.77ZM528.3,296.42a163.81,163.81,0,0,0-10.73-21l-1.34,1.87-.25.36-.1.14c-3.1,4.34-6.18,8.64-9.08,12.67A147,147,0,0,1,496.88,446c1.71,2.95,3.46,5.95,5.17,8.91,1.44,2.5,2.74,4.77,4,6.92A164.26,164.26,0,0,0,528.3,296.42ZM441,209.14a165,165,0,0,0-100.84-8.71c3.31,3.78,7.18,8.65,11.73,14.74A147.42,147.42,0,0,1,437.63,226l3-2.15c4.41-3.12,8.63-6.05,12.75-8.85Q447.36,211.83,441,209.14Z" transform="translate(-213.18 -194.55)"/></svg>