<svg id="Layer_1" data-name="Layer 1" xmlns="http://www.w3.org/2000/svg" viewBox="0 0 328.02 331.41"><defs><style>.cls-1{fill:#b2951e;}</style></defs><path class="cls-1" d="M270.79,471.76q0-50,0-100.08v-4.24q0-12.87,0-25.75v-9.27a152.07,152.07,0,0,1,25.84,1c10.78,1.21,19.89,6.58,29.11,11.77,4.87,2.73,4.49,6.71,4,11.13-4.09,33.9-5.79,67.78-2.36,101.92,1.48,14.72-5.22,20-20.06,17.47-13.62-2.28-26.29,0-36.49,8.67Z" transform="translate(-216.11 -233.26)"/><path class="cls-1" d="M292.31,319.21c-6.13,3.74-13.48,5.49-21.52,6.64V286.17c.06-14,2.33-27.28,11.36-38.68,11.32-14.29,29.14-18.36,45.26-9.71a29.79,29.79,0,0,1,6.49,5.72l-2,.65a4.49,4.49,0,0,1,2.19,1.8c2.88,4.13,6.13,9.28,3.1,14.65C325,282.31,313.68,306.18,292.31,319.21Z" transform="translate(-216.11 -233.26)"/><path class="cls-1" d="M364.15,499.34q-8.26,9.87-16.54,19.72l-5.32,6.32L336,532.85l-3.73,4.43-4.41,5.23q-2.49,3-5.18,5.75c-1.64,1.69-3.34,3.31-5.12,4.85A60.72,60.72,0,0,1,304.31,562c-10.48,5.11-20.57,2.78-26.45-6a25.46,25.46,0,0,1-2.31-4.27,53.64,53.64,0,0,1-3.38-11.55c-.18-.94-.35-1.87-.49-2.8s-.27-2-.37-3q-.19-1.91-.3-3.81c-.18-3-.21-6-.22-9v-24a13.4,13.4,0,0,1,3.11-2.71c9.79-6.63,20.07-7.91,32.07-8.88C328.56,484.24,347.16,490,364.15,499.34Z" transform="translate(-216.11 -233.26)"/><path class="cls-1" d="M344.18,269.78a30.32,30.32,0,0,1,5.28-6.75c4.82,6.56,10,14,15.41,21.85l2.26,3.31q2.34,3.44,4.7,6.95c-8.11,9.86-16.34,19.61-24.46,29.46q-3,3.66-6,7.34l-.61.75c-3.71,4.58-6.86,5.23-12.05,2-6.84-4.21-14.36-7.33-23.68-12C322.91,307.3,333.42,288.43,344.18,269.78Z" transform="translate(-216.11 -233.26)"/><path class="cls-1" d="M335.8,413.39c2.19-13.12-.47-26.63,1.63-40.6,9.75,2.52,20.26,5,33,7.66l3.3.7c9.53,2.05,19.39,4.16,29.5,4.4a36.89,36.89,0,0,0,4.28.25,32,32,0,0,0,8.46-1.11,2.27,2.27,0,0,1,.46-.1,3.35,3.35,0,0,1,.27.47c1.84,3.81,3.84,7.59,5.76,11.24l.14.27c1,1.89,2,3.84,2.94,5.73,3.07,6.1,6.26,12.42,10.51,18.08,1.69,2.25,3.44,4.48,5.14,6.64,2.31,3,4.69,6,6.92,9.07-17.64,6.9-35.66,12.63-53.95,17.76a150.58,150.58,0,0,0-18.95,6.79c-18.31,7.87-30.55,2.44-37.15-16.76C334.7,434.06,336.27,423.89,335.8,413.39Z" transform="translate(-216.11 -233.26)"/><path class="cls-1" d="M461.52,339.1c3.88,1.81,8,3.5,12.55,5.14-2.65.93-5.22,2-7.74,3.1-13.26,6-25.14,14.05-37.15,22.46a43.22,43.22,0,0,1-25.28,8.13,195.49,195.49,0,0,1-26.69-4.42c-9.72-2.2-19.62-4.28-29.2-6.29l-9.13-1.93a79.17,79.17,0,0,1,11.89-27.9A68.45,68.45,0,0,0,361,342.34a46.18,46.18,0,0,0,20.33,5.05,40.9,40.9,0,0,0,13.21-2.23l5.14-1.76c6.42-2.21,13.06-4.5,19.68-6.33a73.35,73.35,0,0,1,19.65-2.9A52.14,52.14,0,0,1,461.52,339.1Z" transform="translate(-216.11 -233.26)"/><path class="cls-1" d="M462.52,545.39a151.87,151.87,0,0,1-16.42-1l-.36-.27-.32-.23c-15.37-11.37-44.56-33.29-57.82-43.68-.72-.57-1.41-1.1-2-1.6l-11.49-9.11a11.73,11.73,0,0,1-1-.87l-1.92,2.3-1.88-1.2c-7.6-4.81-5.56-8.93-.36-13.25,7.18-6,16-8.81,24.74-11.29,20.5-5.84,40.87-12,60.6-19.86A121.82,121.82,0,0,1,470.81,487c1.81,9.53,2.08,19.25,2.1,27.54a40.25,40.25,0,0,0-.67,5.64v0c-.49,6.7-1.37,14.52-4.26,21.73-.71,1.76-1.24,2.69-1.72,3s-1.5.45-3.45.46Z" transform="translate(-216.11 -233.26)"/><path class="cls-1" d="M477.58,556.07l2.45,1.36a30.91,30.91,0,0,1-10-1,71.7,71.7,0,0,1-10-3.45h.84c2.87,0,5.73-.11,8.47-.31.36,0,.77,0,1.13,0a2.86,2.86,0,0,1,1.52.32C473.82,554,475.73,555,477.58,556.07Z" transform="translate(-216.11 -233.26)"/><path class="cls-1" d="M462.5,359.35c6.53-3.56,12.72-6.94,19.63-8.7l-10.84,14.9c-6.28,8.62-12.77,17.11-19.31,25.54-1.25,1.6-2.49,3.21-3.75,4.81l-3.46,4.44-.39.5c-1.48,1.89-1.8,3.41-1.22,5.16a9.75,9.75,0,0,0,.88,1.88q7,12.08,14,24.17l-.31.13q-1.31-1.87-2.67-3.69c-9.82-13.12-17.22-27-25.87-43.77a33.33,33.33,0,0,1-1.57-3.28,30.7,30.7,0,0,1,2.92-1.84l.39-.23c4.5-2.66,8.85-5.64,13-8.51a182.79,182.79,0,0,1,16.09-10.21Z" transform="translate(-216.11 -233.26)"/><path class="cls-1" d="M467.85,449l16.68,28.86c3.38,5.84,6.79,11.66,10.17,17.49a107.27,107.27,0,0,0-12.3,6.48A63.92,63.92,0,0,0,481.21,488,147.76,147.76,0,0,0,467.85,449Z" transform="translate(-216.11 -233.26)"/><path class="cls-1" d="M506.84,522.38a33.27,33.27,0,0,1,.15,8.11,34,34,0,0,1-1.26,6.19,29,29,0,0,1-14.23,17.57c-3.8-2.12-7.65-4.11-11.43-6.06l-2.47-1.28-.33-.19.12-.25a45.82,45.82,0,0,0,4.91-20.81,7.54,7.54,0,0,1,.38-1.69,10.1,10.1,0,0,0,.58-4.33c-.12-6,2.77-9.9,10.24-13.92q2.75-1.47,5.54-2.88l1.55,2.71c.14.25.28.51.43.76A45.61,45.61,0,0,1,506.84,522.38Z" transform="translate(-216.11 -233.26)"/><path class="cls-1" d="M463.46,272.83c-4.73-.84-9.48-1.6-14.22-2.31,7.12-5,14.31-10,21.6-14.74a40.71,40.71,0,0,1,1.8,7.49C473.57,270,472.3,274.39,463.46,272.83Z" transform="translate(-216.11 -233.26)"/><path class="cls-1" d="M437,279.33c26.9,3.16,52.36,9.66,73.82,31.45h0q-8.48,11.9-17.05,23.75l-1.26,1.74c-1.1,1.53-2.21,3.05-3.32,4.58-1.61-.53-3.23-1-4.81-1.52a81.06,81.06,0,0,1-13.17-4.86,70.58,70.58,0,0,0-32.62-7.8,82.27,82.27,0,0,0-11.16.78c-11.53,1.57-22.5,5.54-32.18,9a39.93,39.93,0,0,1-13.53,2.56,32,32,0,0,1-15.93-4.25,9.81,9.81,0,0,0-1.89-.76l-.37-.12-.95-.51-.27-.15-.22-.1-.8-.34-.07,0a5.47,5.47,0,0,0-.6-.21l-.36-.14c-1.25-.81-2.51-1.6-3.78-2.39.8-.9,1.63-1.8,2.49-2.69,6.86-7.12,13-14.91,19.21-22.67,3,4.45,5.89,8.91,8.77,13.3,12.29-9.66,24.49-19.45,36.95-28.9l3.63-2.74,1.81-1.36Q433.2,282.15,437,279.33Z" transform="translate(-216.11 -233.26)"/><path class="cls-1" d="M480,250.06c6-3.13,13.12-4.87,19.83-6,10.45-1.83,20.06.72,26.68,9a42.46,42.46,0,0,1-9.1,6.9C500.55,269.2,488.25,265.88,480,250.06Z" transform="translate(-216.11 -233.26)"/><path class="cls-1" d="M527.17,287.73q-5.28,7.54-10.62,15c-10.61-7.69-11.23-15.66-.89-24.94q8.26-7.44,16-15.31C534.51,271.09,532.74,279.79,527.17,287.73Z" transform="translate(-216.11 -233.26)"/><path class="cls-1" d="M510.85,310.78h0c.11-.17.24-.34.35-.5C511.1,310.45,511,310.61,510.85,310.78Z" transform="translate(-216.11 -233.26)"/><path class="cls-1" d="M445.74,544.13l.26-.08a5.47,5.47,0,0,1-.58-.15Z" transform="translate(-216.11 -233.26)"/><path class="cls-1" d="M460.45,436.15l3.08,5.33,4.32,7.48A140.47,140.47,0,0,0,460.45,436.15Z" transform="translate(-216.11 -233.26)"/><path class="cls-1" d="M439.66,551.8l0,0,0,0c-4.44-3.28-10.07-7.48-16.15-12a147.68,147.68,0,0,1-81.69,1.45c-2.18,2.6-4.34,5.16-6.43,7.63-1.86,2.21-3.76,4.32-5.65,6.25l0,0a164.81,164.81,0,0,0,110-3.26ZM261,485.48a146.95,146.95,0,0,1,0-173V286.22a163.83,163.83,0,0,0,0,225.5V485.48ZM531.24,335.13a164.38,164.38,0,0,0-10.74-21L519.17,316l-.26.36-.1.14c-3.09,4.34-6.18,8.65-9.07,12.67a147,147,0,0,1-9.93,155.53c1.72,2.95,3.46,5.95,5.17,8.91,1.45,2.51,2.75,4.77,4,6.92a164.24,164.24,0,0,0,22.29-165.36ZM444,247.86a164.76,164.76,0,0,0-100.83-8.71c3.3,3.77,7.18,8.64,11.72,14.73a148.24,148.24,0,0,1,25.27-2.17,146.36,146.36,0,0,1,60.44,13l3-2.15c4.4-3.12,8.62-6.05,12.74-8.85Q450.3,250.54,444,247.86Z" transform="translate(-216.11 -233.26)"/></svg>