<svg id="Layer_1" data-name="Layer 1" xmlns="http://www.w3.org/2000/svg" viewBox="0 0 492.65 123.05"><defs><style>.cls-1{fill:#b2951e;}</style></defs><path class="cls-1" d="M564.51,384c-9.3,4.57-18.58,3.93-27.61.94-4.66-1.55-5.95-6.46-6.07-11.06-.24-8.58.06-17.18-.22-25.76-.13-4.05,3.84-3.75,5.72-6.33h-8.78c.33-4.35,2.22-7.85,3.31-11.55.53-1.8,2.15-1.46,3.47-1.46,12.58,0,25.16,0,37.74-.06,2.54,0,3.47.56,3.17,3.4-1,9.54-.89,9.55-10.55,9.55-6,0-12,.09-18,0-2.39-.05-3.65.35-3.59,3.17.15,8,.08,16,0,23.93,0,3.36,1.43,5.23,4.91,5.23,4.6,0,9.2-.11,13.8,0,4,.07,2.92-2.84,2.83-4.86s1.4-5.08-2.9-5.32c-7.72-.42-8-1.1-7.24-9.23.19-1.92.81-2.73,2.77-2.71q8.5.09,17,0c2,0,2.71.9,2.7,2.78,0,10.89,0,21.78,0,32.67,0,2-.82,2.84-2.84,3.36C565.68,392.84,565.7,392.93,564.51,384Z" transform="translate(-113.67 -298.47)"/><path class="cls-1" d="M367.63,348.29c0-6.15.14-10.89-.05-15.62-.11-2.88.68-4.05,3.81-4.09,8.26-.12,8.27-.27,8.28,7.81,0,13.05,0,26.1,0,39.14,0,3.21-.59,6.09-2.95,8.41-2.62,2.59-10.39,4.13-11.94,2.34-1.38-1.59-.24-10.25,1.62-12.28,2-2.22,1.86-9-.67-12.57a44.24,44.24,0,0,0-16.46-13.69c-2.95-1.5-3.69-.11-3.67,2.74.09,10.6-.08,21.19.1,31.78.06,3.45-.68,4.92-4.52,4.76-9-.38-7.56.86-7.6-7.58-.07-15.35.12-30.71-.07-46.05-.05-3.87,1.15-5.33,4.94-4.82a22.89,22.89,0,0,0,4.14,0c2-.08,3.37.56,3,2.85-.37,2.5.37,3,3.08,3.46a23.39,23.39,0,0,1,15.17,8.8C364.83,344.89,365.8,346,367.63,348.29Z" transform="translate(-113.67 -298.47)"/><path class="cls-1" d="M266.34,348.89c6.93-6.78,13.15-12.68,19.14-18.81,2.13-2.18,3.44-2.68,5.83-.19,5.82,6.08,6,6,0,12-3.54,3.62-7.05,7.27-10.69,10.78-1.69,1.64-2.09,3.14-.76,5.2,2.57,4,5,8.08,7.49,12.13,1.78,2.88,4.05,4.2,7.24,2.08,2-1.32,3-.77,3.56,1.43a17.44,17.44,0,0,0,1,2.55c2.7,6.42.18,10.73-6.89,11.43-4.67.46-8.78-.73-11.72-4.82C277,377.71,274,372.34,271,367c-.64-1.09-.84-3.23-2.48-2.81s-2.16,2.32-2.13,4.16c.06,4.76-.15,9.52.07,14.27.15,3.09-.66,4.28-4,4.24-8-.1-8,.07-8-8,0-15.19.12-30.37-.08-45.56-.05-3.74.88-5.48,4.8-4.89a12,12,0,0,0,3.22,0c3.29-.42,4.22,1,4.08,4.19C266.17,337.82,266.34,343,266.34,348.89Z" transform="translate(-113.67 -298.47)"/><path class="cls-1" d="M510.07,382c-.58,5.74-4.15,5.91-8.33,5.77-14.08-.47-21.76-6.95-25.17-22.09-2.27-10.09-2.41-20.37-1.84-30.68.21-3.84,1.8-5.84,5.69-6a22.39,22.39,0,0,0,4.54-.65c2.74-.7,3.12.55,2.9,2.89-.43,4.58-.7,9.18-.94,13.77-.36,6.8,0,13.48,2.94,19.81a14.74,14.74,0,0,0,18.81,7.86c2.26-.83,1.91-2.47,1.91-4.09,0-11.66.17-23.32-.1-35-.09-4,.88-5.78,5.08-5a19.6,19.6,0,0,0,4.13.17c2.07,0,3,.79,3,3q-.06,25.31,0,50.62c0,2.14-.93,3.07-3,3.17a31.16,31.16,0,0,0-5,.41C511.74,386.61,510.1,385.73,510.07,382Z" transform="translate(-113.67 -298.47)"/><path class="cls-1" d="M442.52,341.77c7.79,7.72,15.49,15.53,23.41,23.12a11.88,11.88,0,0,1,3.65,11.22c-1.1,7-4,10.17-11,10.56s-13.8.29-20.7,0c-4.41-.15-10.43-8.1-9.92-12.41.14-1.18,1-1.54,1.78-1.83,2.44-.92,4.94-1.66,7.4-2.52,1-.34,1.82-.52,2.22.68.57,1.7,1.37,3.2,3.4,3.21,3.82,0,7.8.55,11.42-.35,2.29-.58,0-2.48-.87-3.4-5.6-5.68-11.28-11.28-16.93-16.9l-2.93-2.92c-4.41-4.38-4.41-4.38-.08-8.74a2.46,2.46,0,0,0-.47-.66c-1.63-1.15-5.5,1.83-5.25-2.85.44-8.19,1.37-9.61,6.31-9.63,8.13,0,16.26-.12,24.39-.06a10.82,10.82,0,0,1,10.43,12c-.11.83-.39,1.77-1.15,1.76-3.78-.05-7.24,3.29-11.51-.27-3.49-2.92-8.58-.67-12.94-1.13Z" transform="translate(-113.67 -298.47)"/><path class="cls-1" d="M400,341c-4.85,0-8.82-.09-12.79,0-2.5.08-3.28-1-2.91-3.32a55.24,55.24,0,0,0,.83-6.37c.08-2.27,1.27-2.83,3.25-2.83q16.09,0,32.19,0c2.08,0,3.29.59,2.69,2.94a3.4,3.4,0,0,0-.06.46c-.68,9.28-.68,9.49-9.84,9.28-4.08-.1-5.3,1.16-5.14,5.2.3,7.65.1,15.33,0,23,0,1.89-.13,4.15,1.27,5.2,5.61,4.21.84,8.52.33,12.71-.27,2.19-2.42,1.42-3.81,1.18a12.52,12.52,0,0,1-9.87-11.35c-.48-10.4-.25-20.83-.48-31.24C395.68,343.14,398.26,343.18,400,341Z" transform="translate(-113.67 -298.47)"/><path class="cls-1" d="M591.63,340.91c-.71-.07-1.42-.13-2.12-.23-2.21-.34-5.47,1.17-6.45-.91-1.41-3,.11-6.61.45-9.94.17-1.65,1.88-1.29,3-1.31,5.52,0,11.05.05,16.57-.07,2.76-.06,3.75,1.2,3,3.63-1,3.27,1,8.09-4.46,9.35-.32.08-.41,1.7-.42,2.6q0,13.82,0,27.62c0,1.82.18,3.45,2.65,3.3,1.38-.09,1.7.78,1.9,2,1.33,7.95-.27,9.89-8.26,9.89-3.84,0-7.68-.16-11.51.05-3,.17-3.8-1.07-3.37-3.79.32-2,.46-4,.63-6,.1-1.12.23-2.37,1.68-2.22,3.75.41,3.33-2.14,3.34-4.43q.06-11.06.12-22.11c0-2.78-.47-5.82,4.16-6.36Z" transform="translate(-113.67 -298.47)"/><path class="cls-1" d="M313.44,340.88c-.6-.06-1.2-.16-1.81-.19-7.2-.24-7-.23-6.69-7.62.16-3.53,1.32-4.86,4.92-4.66a123,123,0,0,0,14.24,0c3.84-.22,4.64,1.47,3.61,4.63-1,3,.75,7.43-4.38,8.37-.33.06-.44,2-.45,3,0,8.88,0,17.77,0,26.65,0,2.14,0,4,3,3.91,1.48-.07,1.43,1.21,1.54,2.31.83,8.88.26,9.53-8.62,9.53-4,0-8,0-11.95,0-1.93,0-2.86-.61-2.56-2.69.34-2.42.57-4.86.84-7.29.11-1,.33-2,1.5-1.91,4.34.44,3.56-2.61,3.58-5.1,0-7.05.13-14.1,0-21.14C310.18,345.7,310.23,342.91,313.44,340.88Z" transform="translate(-113.67 -298.47)"/><path class="cls-1" d="M205.51,313.17c-1.76-.32-3.52-.6-5.28-.86,2.64-1.87,5.32-3.71,8-5.48a14.55,14.55,0,0,1,.67,2.79C209.27,312.1,208.79,313.75,205.51,313.17Z" transform="translate(-113.67 -298.47)"/><path class="cls-1" d="M211.16,305c-.19.1-.37.21-.54.32l.53-.33.51-.27C211.49,304.8,211.32,304.89,211.16,305Z" transform="translate(-113.67 -298.47)"/><path class="cls-1" d="M211.66,304.71a25.63,25.63,0,0,1,7.36-2.24c3.88-.68,7.45.26,9.91,3.36a16.43,16.43,0,0,1-3.38,2.56C219.28,311.82,214.72,310.59,211.66,304.71Z" transform="translate(-113.67 -298.47)"/><path class="cls-1" d="M229.17,318.7q-2,2.81-3.95,5.59c-3.94-2.86-4.16-5.82-.33-9.26,2.05-1.85,4-3.74,6-5.69A10.29,10.29,0,0,1,229.17,318.7Z" transform="translate(-113.67 -298.47)"/><path class="cls-1" d="M183.4,352.19a16.06,16.06,0,0,0,9.38-3,86.44,86.44,0,0,1,13.8-8.34c.93-.42,1.89-.81,2.87-1.15-1.68-.61-3.22-1.24-4.66-1.91a19.4,19.4,0,0,0-8.36-1.83,27,27,0,0,0-7.3,1.08c-2.45.68-4.92,1.53-7.3,2.35l-1.91.65a15.16,15.16,0,0,1-4.91.83,17,17,0,0,1-7.54-1.88,24.26,24.26,0,0,1-3.8-1.84,29.32,29.32,0,0,0-4.41,10.37l3.39.71c3.55.75,7.23,1.52,10.84,2.34A72.55,72.55,0,0,0,183.4,352.19Z" transform="translate(-113.67 -298.47)"/><path class="cls-1" d="M212.54,398.18a40,40,0,0,1,4.57-2.41l.68,1.17.36.64-.36-.64-.68-1.17c-1.25-2.17-2.52-4.33-3.78-6.49q-3.08-5.36-6.17-10.69a55.09,55.09,0,0,1,4.94,14.47A23.37,23.37,0,0,1,212.54,398.18Z" transform="translate(-113.67 -298.47)"/><path class="cls-1" d="M203.4,372.33l.11-.05h0q-2.59-4.48-5.21-9a4.81,4.81,0,0,1-.33-.7,1.89,1.89,0,0,1,.46-1.91l.14-.19,1.29-1.65,1.39-1.79c2.43-3.13,4.84-6.28,7.17-9.48l4-5.53a32.15,32.15,0,0,0-7.28,3.23l-.89.48a70.09,70.09,0,0,0-6,3.79c-1.56,1.07-3.17,2.17-4.84,3.16l-.15.09c-.43.26-.88.52-1.08.68a13,13,0,0,0,.58,1.22c3.21,6.23,6,11.38,9.61,16.25C202.75,371.41,203.08,371.87,203.4,372.33Z" transform="translate(-113.67 -298.47)"/><path class="cls-1" d="M159,376.67c2.45,7.13,7,9.15,13.79,6.23a55.2,55.2,0,0,1,7-2.53,210.15,210.15,0,0,0,20-6.59c-.82-1.14-1.7-2.27-2.56-3.36-.63-.81-1.28-1.64-1.91-2.47a44.55,44.55,0,0,1-3.91-6.71c-.35-.71-.71-1.43-1.08-2.13l-.06-.1c-.71-1.36-1.45-2.76-2.13-4.17a1,1,0,0,0-.11-.18.54.54,0,0,0-.17,0,12,12,0,0,1-3.14.41,14.39,14.39,0,0,1-1.59-.09,59,59,0,0,1-11-1.64l-1.22-.26c-4.74-1-8.64-1.91-12.26-2.84-.78,5.19.21,10.2-.61,15.08C158.29,369.25,157.7,373,159,376.67Z" transform="translate(-113.67 -298.47)"/><path class="cls-1" d="M173.86,325c-2.3,2.88-4.59,5.77-7.13,8.41l-.93,1,1.41.89.13.05.22.08h0l.3.13.08,0,.1.05.35.19.14,0a3.39,3.39,0,0,1,.7.28,11.91,11.91,0,0,0,5.91,1.58,14.69,14.69,0,0,0,5-1,59,59,0,0,1,11.94-3.35,31.15,31.15,0,0,1,4.15-.29,26.2,26.2,0,0,1,12.11,2.9,30.69,30.69,0,0,0,4.89,1.8l1.79.56c-.08.12-.17.23-.25.34.09-.11.17-.23.25-.34l1.23-1.7.46-.64c2.12-2.94,4.24-5.87,6.34-8.82-8-8.09-17.42-10.51-27.41-11.68-.95.7-1.9,1.4-2.84,2.11l-.68.5-1.35,1c-4.62,3.5-9.15,7.14-13.71,10.73-1.07-1.63-2.16-3.29-3.26-4.94Z" transform="translate(-113.67 -298.47)"/><path class="cls-1" d="M219.46,399.85a2.54,2.54,0,0,1-.16-.28c-.19-.33-.38-.67-.58-1h0c-.69.35-1.38.7-2.06,1.07-2.77,1.49-3.84,2.94-3.8,5.16a3.8,3.8,0,0,1-.21,1.61,2.6,2.6,0,0,0-.14.63,17.08,17.08,0,0,1-1.83,7.73.36.36,0,0,0,0,.09l.12.07.92.47c1.4.73,2.83,1.46,4.24,2.25h0a10.7,10.7,0,0,0,5.28-6.52,12.3,12.3,0,0,0,.42-5.31A17,17,0,0,0,219.46,399.85Z" transform="translate(-113.67 -298.47)"/><path class="cls-1" d="M199.61,414.4l-.54-.4a56.08,56.08,0,0,0,6.09.36h.11a2.67,2.67,0,0,0,1.28-.17,2.59,2.59,0,0,0,.64-1.12,27,27,0,0,0,1.58-8.06h0a15.78,15.78,0,0,1,.25-2.1,56.18,56.18,0,0,0-.78-10.22,45.31,45.31,0,0,0-6.13-15.47,228.39,228.39,0,0,1-22.5,7.38c-3.24.92-6.52,2-9.19,4.19-1.93,1.6-2.69,3.14.13,4.92l.7.45-2.61,3.12a37.16,37.16,0,0,0-21.6-4.93c-4.46.35-8.28.83-11.91,3.29a5,5,0,0,0-1.16,1v-4.91c3.79-3.22,8.5-4.07,13.55-3.22,5.52.93,8-1,7.45-6.49a171.59,171.59,0,0,1,.88-37.84c.2-1.64.34-3.12-1.47-4.14-3.43-1.92-6.81-3.91-10.81-4.36a55.46,55.46,0,0,0-9.6-.39v-2.44a21.09,21.09,0,0,0,8-2.46c7.93-4.84,12.12-13.7,16.66-21.76,1.12-2-.09-3.91-1.16-5.44a1.61,1.61,0,0,0-.81-.67l.75-.24a11.12,11.12,0,0,0-2.41-2.13c-6-3.21-12.6-1.7-16.81,3.61-3.35,4.23-4.19,9.16-4.22,14.36v78.52c0,3,0,5.93,0,8.89,0,1.12,0,2.24.08,3.35,0,.48.06.95.11,1.42s.08.73.14,1.1.11.69.18,1a20.07,20.07,0,0,0,1.25,4.28,9.58,9.58,0,0,0,.86,1.59c2.18,3.25,5.93,4.12,9.82,2.22a22.41,22.41,0,0,0,4.92-3.3c.66-.57,1.29-1.17,1.9-1.8s1.31-1.4,1.93-2.14l1.63-1.94,1.39-1.64,2.33-2.77,2-2.35,6.14-7.32,2.61-3.12.72-.86a3.73,3.73,0,0,0,.36.32l4.26,3.39.76.59c4.92,3.86,15.76,12,21.46,16.22l.12.09.14.1.54.4.64.47Zm-.68-.5-.12-.09.22.06Z" transform="translate(-113.67 -298.47)"/><path class="cls-1" d="M211.66,418.84l-.91-.51-2.09-1.17a1,1,0,0,0-.56-.12l-.42,0c-1,.07-2.08.11-3.15.11h-.31c-.36-.16-.7-.35-1.05-.52.35.17.69.36,1.05.52a26.81,26.81,0,0,0,3.72,1.28,11.71,11.71,0,0,0,3.72.39,10.21,10.21,0,0,0,1.77-.28A10.21,10.21,0,0,1,211.66,418.84Z" transform="translate(-113.67 -298.47)"/><path class="cls-1" d="M163.19,309.53a10.94,10.94,0,0,0-2,2.5c-4,6.93-7.89,13.93-14.53,19.68,3.46,1.71,6.25,2.87,8.79,4.43,1.93,1.19,3.1.95,4.48-.75.07-.09.14-.19.22-.28.74-.91,1.48-1.82,2.23-2.72,3-3.66,6.07-7.28,9.08-10.94l-1.74-2.58c-.29-.41-.57-.83-.84-1.23-2-2.91-3.94-5.68-5.72-8.11-1.65-2.25-3.17-4.22-4.48-5.78C160,305.31,161.54,307.28,163.19,309.53Z" transform="translate(-113.67 -298.47)"/><path class="cls-1" d="M196.68,416.74h0l-6-4.47a54.78,54.78,0,0,1-30.33.54l-2.39,2.83c-.69.82-1.4,1.6-2.09,2.32h0a61.24,61.24,0,0,0,40.85-1.21Zm-66.33-24.62a54.55,54.55,0,0,1,0-64.24v-9.74a60.82,60.82,0,0,0,0,83.72v-9.74ZM230.68,336.3a61,61,0,0,0-4-7.81l-.5.69-.09.13,0,.05c-1.15,1.62-2.29,3.21-3.37,4.71A54.6,54.6,0,0,1,219,391.82l1.92,3.3,1.47,2.57a61,61,0,0,0,8.28-61.39Zm-32.41-32.41a61.33,61.33,0,0,0-37.44-3.23c1.23,1.4,2.67,3.21,4.36,5.47a54.86,54.86,0,0,1,31.82,4l1.12-.8c1.64-1.16,3.21-2.25,4.74-3.29Q200.62,304.89,198.27,303.89Z" transform="translate(-113.67 -298.47)"/></svg>