<svg id="Layer_1" data-name="Layer 1" xmlns="http://www.w3.org/2000/svg" xmlns:xlink="http://www.w3.org/1999/xlink" viewBox="0 0 276.43 276.43"><defs><style>.cls-1{fill:#333;}.cls-2{fill:url(#linear-gradient);}.cls-3{fill:url(#linear-gradient-2);}.cls-4{fill:url(#linear-gradient-3);}.cls-5{fill:url(#linear-gradient-4);}.cls-6{fill:url(#linear-gradient-5);}.cls-7{fill:url(#linear-gradient-6);}.cls-8{fill:url(#linear-gradient-7);}.cls-9{fill:url(#linear-gradient-8);}.cls-10{fill:url(#linear-gradient-9);}.cls-11{fill:url(#linear-gradient-10);}.cls-12{fill:url(#linear-gradient-11);}.cls-13{fill:url(#linear-gradient-12);}.cls-14{fill:url(#linear-gradient-13);}.cls-15{fill:url(#linear-gradient-14);}.cls-16{fill:url(#linear-gradient-15);}</style><linearGradient id="linear-gradient" x1="226.77" y1="191.75" x2="566.96" y2="499.44" gradientUnits="userSpaceOnUse"><stop offset="0.01" stop-color="#dcba30"/><stop offset="0.3" stop-color="#b2951e"/><stop offset="0.58" stop-color="#e5cc64"/><stop offset="0.79" stop-color="#f6eecb"/><stop offset="1" stop-color="#fff"/></linearGradient><linearGradient id="linear-gradient-2" x1="209.43" y1="210.92" x2="549.63" y2="518.61" xlink:href="#linear-gradient"/><linearGradient id="linear-gradient-3" x1="225" y1="193.71" x2="565.19" y2="501.4" xlink:href="#linear-gradient"/><linearGradient id="linear-gradient-4" x1="167.87" y1="256.87" x2="508.07" y2="564.56" xlink:href="#linear-gradient"/><linearGradient id="linear-gradient-5" x1="110.25" y1="320.57" x2="450.45" y2="628.26" xlink:href="#linear-gradient"/><linearGradient id="linear-gradient-6" x1="133.28" y1="295.12" x2="473.47" y2="602.81" xlink:href="#linear-gradient"/><linearGradient id="linear-gradient-7" x1="148.89" y1="277.85" x2="489.09" y2="585.54" xlink:href="#linear-gradient"/><linearGradient id="linear-gradient-8" x1="189.31" y1="233.16" x2="529.51" y2="540.85" xlink:href="#linear-gradient"/><linearGradient id="linear-gradient-9" x1="200.26" y1="221.05" x2="540.46" y2="528.75" xlink:href="#linear-gradient"/><linearGradient id="linear-gradient-10" x1="182.31" y1="240.91" x2="522.5" y2="548.6" xlink:href="#linear-gradient"/><linearGradient id="linear-gradient-11" x1="191" y1="231.3" x2="531.19" y2="538.99" xlink:href="#linear-gradient"/><linearGradient id="linear-gradient-12" x1="242.57" y1="174.28" x2="582.77" y2="481.97" xlink:href="#linear-gradient"/><linearGradient id="linear-gradient-13" x1="264.97" y1="149.51" x2="605.16" y2="457.21" xlink:href="#linear-gradient"/><linearGradient id="linear-gradient-14" x1="279.92" y1="132.98" x2="620.12" y2="440.68" xlink:href="#linear-gradient"/><linearGradient id="linear-gradient-15" x1="298.9" y1="112" x2="639.1" y2="419.69" xlink:href="#linear-gradient"/></defs><path d="M307.16,398.77h0c-.05-.11-.08-.28-.13-.39C307.09,398.49,307.12,398.66,307.16,398.77Z" transform="translate(-221.78 -221.78)"/><path class="cls-1" d="M476.52,242c-5.43-8.43-14-11.08-23.38-9.43-5.94,1-12.24,2.61-17.42,5.57l-3.46,2.17c-12.69,8.17-25,16.93-37.09,26l-1.49,1.12-3,2.26c-10.24,7.77-20.28,15.82-30.39,23.77-5.33-8.13-10.9-16.54-16.33-24.52l-1.86-2.73c-13.34-19.48-25.55-35.91-30.82-38.74-13.26-7.12-27.92-3.77-37.23,8-7.43,9.38-9.3,20.31-9.35,31.82V440.72q0,10.08,0,20.17c0,2.47,0,4.95.17,7.42.06,1.05.14,2.09.25,3.13.09.82.19,1.63.31,2.43s.25,1.53.4,2.31h0c.14.77.3,1.54.47,2.3l.36,1.47a39.84,39.84,0,0,0,1.95,5.73,21.91,21.91,0,0,0,1,2.06c.19.34.38.66.58,1,.1.16.2.32.31.48h0c4.84,7.2,13.14,9.12,21.76,4.92a50.25,50.25,0,0,0,10.9-7.32c1.46-1.26,2.86-2.6,4.21-4s2.89-3.1,4.26-4.73q5.94-7,11.87-14.09l4.38-5.2q10.5-12.5,21-25a8,8,0,0,0,.8.72l9.44,7.49,1.68,1.32c11.44,9,37.29,28.35,49.33,37.24l2.15,1.58a49.52,49.52,0,0,0,16.29,7.39c13.22,3.54,25.6-3.59,29.41-16.21a28.72,28.72,0,0,0,1-5.09,27.58,27.58,0,0,0-.12-6.68,37.44,37.44,0,0,0-4.79-13.22l-.35-.62c-1.11-1.95-2.23-3.9-3.35-5.83-3.27-5.67-6.58-11.32-9.86-17-11.1-19.18-22.15-38.39-33.31-57.53a7.8,7.8,0,0,1-.72-1.55c-.48-1.44-.22-2.69,1-4.24l.32-.41,2.84-3.66c1-1.31,2.06-2.64,3.09-4,5.38-6.94,10.72-13.92,15.89-21q8.74-12,17.47-24.07l1-1.43q7.2-10,14.33-20l2.84-4q5.18-7.26,10.28-14.56C481.46,260.15,482.23,250.81,476.52,242Z" transform="translate(-221.78 -221.78)"/><path d="M373.83,429.76l0-.07h0Z" transform="translate(-221.78 -221.78)"/><path class="cls-2" d="M339.79,279.63a58.4,58.4,0,0,1-4.55,17c-.93,2.12-2,2.78-4.11,1.45-5.37-3.37-11.06-6.28-16.26-9.83-.65-.45-1.31-.89-2-1.31a76.79,76.79,0,0,1,22-14.6Q337.32,275.89,339.79,279.63Z" transform="translate(-221.78 -221.78)"/><path class="cls-3" d="M339.17,309.35a53.2,53.2,0,0,1-19.44,8.12c-10.84,2-19.12-2.11-22.76-11.35,3-3.91,6-7.82,9.06-11.69q1.61-2,3.32-3.89c8.39,5,16.61,10.26,24.82,15.57,1.67,1.07,3.33,2.16,5,3.24Z" transform="translate(-221.78 -221.78)"/><path class="cls-4" d="M309.37,239.07c-4.08-2.68-8.46-4.74-13.56-4-9.39,1.3-14.71,7.45-17.4,15.85a50.36,50.36,0,0,0-2.29,14.89c0,1.75,0,3.49,0,5.24,2.34.7,4.66,1.42,6.95,2.22a9.3,9.3,0,0,1,.95.47,109.64,109.64,0,0,1,25.43,11c.18-.17.36-.35.54-.51a84.77,84.77,0,0,1,23.18-14.54C322.58,254.09,313.48,241.79,309.37,239.07Zm-6.49,13a122.33,122.33,0,0,0-10.69,6.41l-7.2,4.82,2.29-8.35c.1-.38.22-.77.34-1.14,2.33-7.27,6.12-8.74,9.52-9.21h.05a5.12,5.12,0,0,1,.67,0c1.39,0,3,.59,5.18,1.92l4.84,2.95Z" transform="translate(-221.78 -221.78)"/><path class="cls-5" d="M276,425.73q0-40.82,0-81.62v-5.23q0-12.83,0-25.65c0-1.49,0-3,0-4.45q0-5.43,0-10.86a112.71,112.71,0,0,1,8.21,8.85q2.93,3.53,5.54,7.29a25.21,25.21,0,0,0,3.16,4.39A18.81,18.81,0,0,0,303.79,328a24.18,24.18,0,0,0,3.68,1,39.89,39.89,0,0,0,13.61-.1c10.09-1.66,19-6.27,27.17-11.95h0a5.77,5.77,0,0,1-.18,1.53c-3.49,14.61-8.2,28.64-18.29,40.25-8,8-16.31,15.64-23.76,24.17-9.12,10.43-11.59,22.61-10.12,36,.95,8.6.18,17.33,1.8,25.89.37,1.95-.92,2.46-2.27,3.1-6.58,3.1-13.27,6-19.42,9.88C275.86,447.09,276,436.41,276,425.73Z" transform="translate(-221.78 -221.78)"/><path class="cls-6" d="M279.54,476.48l10.9,3.71A8.63,8.63,0,0,1,279.54,476.48Z" transform="translate(-221.78 -221.78)"/><path class="cls-7" d="M336.51,432c-.78,1-1.58,1.94-2.38,2.9q-5.64,6.85-11.48,13.56c-1.44,1.67-2.9,3.33-4.36,5-5.52,6.29-11.11,12.51-16.7,18.74a33.85,33.85,0,0,1-7.47,6.06c-5.41-1.82-10.82-3.62-16.23-5.47a31,31,0,0,1-1.74-9h0a31.71,31.71,0,0,1,9.45-7.12c16-8.6,32.87-15.33,49-23.7l1.93-1Z" transform="translate(-221.78 -221.78)"/><path class="cls-8" d="M341.14,426.4h0c-.18.22-.38.45-.55.67-1.12.94-3.35,1.51-4.81,2.21-10,4.81-20,9.44-30,14.19-2.65,1.26-3.75.65-3.74-2.36,0-11,.11-21.93-.82-32.82.92-2.33-1.4-5.66,1.6-7,2.48-1.06,4.24,1.73,6.13,3,8.34,5.72,16.35,11.92,25.14,17,.63.36,1.29.66,1.89,1.07,1.82,1.24,5.42,1.22,5.35,3.41A1.49,1.49,0,0,1,341.14,426.4Z" transform="translate(-221.78 -221.78)"/><path class="cls-9" d="M354.07,398.42c-3.25,2.95-4.06,7.22-5.68,11a25.4,25.4,0,0,0-2.2,10.77h0l-.05.06-2.41,3h0c-.18-.08-.38-.2-.59-.32-12.47-7.55-24.35-16-36.54-23.95-2.36-1.54-2.87-3.09-1.42-5.67,3.93-7,9.25-12.88,14.9-18.49l11-10.93.79-1.07a1.5,1.5,0,0,0,1.42-1.09,64.94,64.94,0,0,0,18.17-32.57c.52-2.24.31-6.11,2.4-6.24,2.55-.15,2.14,3.74,3,5.83a148.48,148.48,0,0,1,8.54,27.9A36.07,36.07,0,0,1,361.69,382c-2.5,4.63-5.36,9.12-6.94,14.22C353.78,396.73,354.14,397.64,354.07,398.42Z" transform="translate(-221.78 -221.78)"/><path class="cls-10" d="M356.08,408c.56-1.45,1.11-2.9,1.68-4.34,4.48-9.49,9.66-18.7,12.44-28.87,1.85-6.77.49-13.61-1.32-20.3C366.06,344,362,334,358.07,323.9c-.67-1.71-2.43-4.18-1-5.2s3.23,1.48,4.58,2.62c3.62,3.07,7.16,6.24,10.72,9.38q.87,1.38,1.68,2.7c4.26,6.84,7.74,12.45,10,16l0,.06c0,.05.05.1.08.14,4.93,8.57.7,1.73,5.87,10.15,1.73,2.81,1.33,4.55-.6,6.92C378.25,380.43,367.19,394.23,356.08,408Z" transform="translate(-221.78 -221.78)"/><path class="cls-11" d="M447.12,461.08c3.33,11.91-5.56,20.69-17.38,17.1a43.06,43.06,0,0,1-13.11-6.66l-6.24-4.72c5.5-1.92,10.93-4.09,16.61-5.46,4.05-1,8.22-2.43,12.26-2.2a27.2,27.2,0,0,1,7.75,1.58C447.05,460.84,447.08,461,447.12,461.08Z" transform="translate(-221.78 -221.78)"/><path class="cls-12" d="M441.63,449.37c.7,1.22,1.4,2.45,2.08,3.71-.09.17-.18.35-.26.52a5.05,5.05,0,0,1-5.1,3,56.91,56.91,0,0,0-27.68,6.28,23.72,23.72,0,0,1-3.59,1.43c-9.27-7-21.29-16.14-31.75-24.17.08-.21.17-.43.25-.65,1.18-3.21,2.24-6.46,3.38-9.69,7.39-16.85,14.83-33.67,22.15-50.55Q421.41,414.27,441.63,449.37Z" transform="translate(-221.78 -221.78)"/><path class="cls-13" d="M408.51,341.84c-1.85,2.53-3.8,5-5.85,7.54l-2.2,2.75-1.06,1.36-2-3.51-.78-1.32h0a9.44,9.44,0,0,0-1.07-2.13c-.44-.67-.89-1.34-1.34-2a.13.13,0,0,0,0,0,.7.7,0,0,0-.1-.16h0c-1.26-1.84-2.55-3.65-3.87-5.41s-3.73-5.36-6.91-10.22c12.53-7.05,25.05-14.15,39.15-17.76a102.5,102.5,0,0,1,10.23-2.1Q420.59,325.34,408.51,341.84Z" transform="translate(-221.78 -221.78)"/><path class="cls-14" d="M438.39,271.15c-2,10.34-3.35,20.73-2.82,31.29.15,2.93-1.18,4.6-4.19,4.84-13,1-24.91,5.77-36.56,11.29-1,.49-2.26,1.54-3.23.82-1.26-.94,0-2.36.21-3.49,1.82-7.83,4-15.58,5.54-23.48a43.91,43.91,0,0,0,.54-14.12c2.13-1.64,4.27-3.28,6.42-4.9,10.78-8.13,21.95-15.76,33.28-23.13C439.8,256.91,439.77,263.92,438.39,271.15Z" transform="translate(-221.78 -221.78)"/><path class="cls-15" d="M439.43,299.47c.8-8.08,1.89-16.14,2.88-24.21.54-4.32,1.16-8.63,1.75-12.94.08-.66-.14-1.5.73-1.77.64-.19,1.1.24,1.43.75,3.19,5.13,6.62,10.13,9.9,15.21Q447.79,288,439.43,299.47Z" transform="translate(-221.78 -221.78)"/><path class="cls-16" d="M468.45,257a26.72,26.72,0,0,1-4.19,8.3c-1.85,2.57-3.7,5.12-5.56,7.68l-.24-.35c-5.42-8-12.36-15.05-16.69-23.73l-.5-1c5.56-3.49,12-5.45,18.86-4.1C466.66,245.06,470.23,250.55,468.45,257Z" transform="translate(-221.78 -221.78)"/><path class="cls-1" d="M232.65,306.2a138.08,138.08,0,0,0,16.6,136.51l5.8,7.74V422.36l-.45-.76a121.9,121.9,0,0,1,0-123.2l.45-.76v-28.1l-5.81,7.74A138.23,138.23,0,0,0,232.65,306.2Z" transform="translate(-221.78 -221.78)"/><path class="cls-1" d="M413.8,232.65A137.31,137.31,0,0,0,360,221.78a139.12,139.12,0,0,0-30.35,3.34l-5.13,1.15,3.35,4c2,2.37,4.17,5.2,6.58,8.4l1.2,1.6,2-.37A123,123,0,0,1,360,237.89a121.52,121.52,0,0,1,44,8.18l1.61.63,1.41-1c3.23-2.28,6.41-4.48,9.43-6.53l4.79-3.25-5.29-2.36C415.25,233.26,414.56,233,413.8,232.65Z" transform="translate(-221.78 -221.78)"/><path class="cls-1" d="M392,479.1l-1.22-.92-1.48.37a122.39,122.39,0,0,1-62.15-.93l-2-.56-1.33,1.59-4.77,5.66c-.69.81-1.37,1.6-2,2.33l-3.34,3.72,4.77,1.51a139.07,139.07,0,0,0,82.41.21l6.07-1.88-5.1-3.79Z" transform="translate(-221.78 -221.78)"/><path class="cls-1" d="M487.35,306.2a138.86,138.86,0,0,0-8.78-17.29L476,284.67l-2.85,4c-.87,1.24-1.83,2.58-2.81,4L467,297.39l-1.19,1.66,1,1.78a121.88,121.88,0,0,1-8.47,131.5l-1.26,1.7,1.06,1.83.33.57.33.58c1.46,2.52,2.57,4.47,3.38,5.89l.3.54.05.1.06.08c.27.47.5.91.72,1.32l2.32,4.37,3.06-3.88A138.38,138.38,0,0,0,487.35,306.2Z" transform="translate(-221.78 -221.78)"/></svg>